<svg width="30" height="30" viewBox="0 0 30 30" fill="none" xmlns="http://www.w3.org/2000/svg">
<path d="M23.75 21.25V23.75H8.75V21.25C8.75 21.25 8.75 16.25 16.25 16.25C23.75 16.25 23.75 21.25 23.75 21.25ZM20 10C20 9.25832 19.7801 8.5333 19.368 7.91661C18.956 7.29993 18.3703 6.81928 17.6851 6.53545C16.9998 6.25162 16.2458 6.17736 15.5184 6.32206C14.791 6.46675 14.1228 6.8239 13.5983 7.34835C13.0739 7.8728 12.7167 8.54098 12.5721 9.26841C12.4274 9.99584 12.5016 10.7498 12.7855 11.4351C13.0693 12.1203 13.5499 12.706 14.1666 13.118C14.7833 13.5301 15.5083 13.75 16.25 13.75C17.2446 13.75 18.1984 13.3549 18.9017 12.6517C19.6049 11.9484 20 10.9946 20 10ZM24 16.325C24.6833 16.9554 25.2342 17.7156 25.6205 18.5611C26.0068 19.4067 26.2208 20.3208 26.25 21.25V23.75H30V21.25C30 21.25 30 16.9375 24 16.325ZM22.5 6.25C22.1223 6.25023 21.747 6.30927 21.3875 6.425C22.1188 7.47371 22.5109 8.72148 22.5109 10C22.5109 11.2785 22.1188 12.5263 21.3875 13.575C21.747 13.6907 22.1223 13.7498 22.5 13.75C23.4946 13.75 24.4484 13.3549 25.1517 12.6517C25.8549 11.9484 26.25 10.9946 26.25 10C26.25 9.00544 25.8549 8.05161 25.1517 7.34835C24.4484 6.64509 23.4946 6.25 22.5 6.25ZM10 12.5H6.25V8.75H3.75V12.5H0V15H3.75V18.75H6.25V15H10V12.5Z" fill="black"/>
</svg>
