<svg width="15" height="15" viewBox="0 0 15 15" fill="none" xmlns="http://www.w3.org/2000/svg">
<path d="M0.791687 5.51915H2.54169V0.852478H4.29169L7.28419 5.51915H11.2917V0.852478H13.0417V5.51915H14.7917V7.0747H13.0417V8.63026H14.7917V10.1858H13.0417V14.8525H11.2917L8.29044 10.1858H4.29169V14.8525H2.54169V10.1858H0.791687V8.63026H2.54169V7.0747H0.791687V5.51915ZM4.29169 5.51915H5.28044L4.29169 3.98692V5.51915ZM4.29169 7.0747V8.63026H7.28419L6.28669 7.0747H4.29169ZM11.2917 11.7414V10.1858H10.2854L11.2917 11.7414ZM8.28169 7.0747L9.28794 8.63026H11.2917V7.0747H8.28169Z" fill="#282828"/>
</svg>
