<svg width="180" height="35" viewBox="0 0 180 35" fill="none" xmlns="http://www.w3.org/2000/svg">
<path d="M0.658203 9.35156C0.658203 8.30859 0.857422 7.33008 1.25586 6.41602C1.6543 5.50195 2.19336 4.70508 2.87305 4.02539C3.56445 3.33398 4.36719 2.78906 5.28125 2.39062C6.19531 1.99219 7.17383 1.79297 8.2168 1.79297H19.7832V6.83789H8.2168C7.86523 6.83789 7.53711 6.90234 7.23242 7.03125C6.92773 7.16016 6.6582 7.3418 6.42383 7.57617C6.20117 7.79883 6.02539 8.0625 5.89648 8.36719C5.76758 8.67187 5.70312 9 5.70312 9.35156C5.70312 9.70312 5.76758 10.0371 5.89648 10.3535C6.02539 10.6582 6.20117 10.9277 6.42383 11.1621C6.6582 11.3848 6.92773 11.5605 7.23242 11.6895C7.53711 11.8184 7.86523 11.8828 8.2168 11.8828H13.2617C14.3047 11.8828 15.2832 12.082 16.1973 12.4805C17.123 12.8672 17.9258 13.4062 18.6055 14.0977C19.2969 14.7773 19.8359 15.5801 20.2227 16.5059C20.6211 17.4199 20.8203 18.3984 20.8203 19.4414C20.8203 20.4844 20.6211 21.4629 20.2227 22.377C19.8359 23.291 19.2969 24.0938 18.6055 24.7852C17.9258 25.4648 17.123 26.0039 16.1973 26.4023C15.2832 26.8008 14.3047 27 13.2617 27H2.06445V21.9551H13.2617C13.6133 21.9551 13.9414 21.8906 14.2461 21.7617C14.5508 21.6328 14.8145 21.457 15.0371 21.2344C15.2715 21 15.4531 20.7305 15.582 20.4258C15.7109 20.1211 15.7754 19.793 15.7754 19.4414C15.7754 19.0898 15.7109 18.7617 15.582 18.457C15.4531 18.1523 15.2715 17.8887 15.0371 17.666C14.8145 17.4316 14.5508 17.25 14.2461 17.1211C13.9414 16.9922 13.6133 16.9277 13.2617 16.9277H8.2168C7.17383 16.9277 6.19531 16.7285 5.28125 16.3301C4.36719 15.9316 3.56445 15.3926 2.87305 14.7129C2.19336 14.0215 1.6543 13.2188 1.25586 12.3047C0.857422 11.3789 0.658203 10.3945 0.658203 9.35156ZM49.1562 27H44.1289V9C44.1289 8.64844 44.0586 8.32031 43.918 8.01562C43.7891 7.71094 43.6074 7.44727 43.373 7.22461C43.1504 6.99023 42.8867 6.80859 42.582 6.67969C42.2773 6.55078 41.9492 6.48633 41.5977 6.48633C41.2461 6.48633 40.918 6.55078 40.6133 6.67969C40.3086 6.80859 40.0391 6.99023 39.8047 7.22461C39.582 7.44727 39.4062 7.71094 39.2773 8.01562C39.1484 8.32031 39.084 8.64844 39.084 9V27H34.0391V9C34.0391 8.64844 33.9746 8.32031 33.8457 8.01562C33.7168 7.71094 33.5352 7.44727 33.3008 7.22461C33.0781 6.99023 32.8145 6.80859 32.5098 6.67969C32.2051 6.55078 31.877 6.48633 31.5254 6.48633C31.1738 6.48633 30.8457 6.55078 30.541 6.67969C30.2363 6.80859 29.9668 6.99023 29.7324 7.22461C29.5098 7.44727 29.334 7.71094 29.2051 8.01562C29.0762 8.32031 29.0117 8.64844 29.0117 9V27H23.9668V9C23.9668 7.95703 24.1602 6.97852 24.5469 6.06445C24.9453 5.13867 25.4844 4.33594 26.1641 3.65625C26.8555 2.96484 27.6582 2.42578 28.5723 2.03906C29.498 1.64062 30.4824 1.44141 31.5254 1.44141C32.4629 1.44141 33.3652 1.61133 34.2324 1.95117C35.0996 2.2793 35.8789 2.75977 36.5703 3.39258C37.2617 2.75977 38.0352 2.2793 38.8906 1.95117C39.7578 1.61133 40.6602 1.44141 41.5977 1.44141C42.6406 1.44141 43.6191 1.64062 44.5332 2.03906C45.459 2.42578 46.2617 2.96484 46.9414 3.65625C47.6328 4.33594 48.1719 5.13867 48.5586 6.06445C48.957 6.97852 49.1562 7.95703 49.1562 9V27ZM68.5098 16.9277V11.8828C68.5098 11.1914 68.375 10.541 68.1055 9.93164C67.8477 9.31055 67.4902 8.77148 67.0332 8.31445C66.5762 7.85742 66.0371 7.5 65.416 7.24219C64.8066 6.97266 64.1562 6.83789 63.4648 6.83789C62.7734 6.83789 62.1172 6.97266 61.4961 7.24219C60.8867 7.5 60.3535 7.85742 59.8965 8.31445C59.4395 8.77148 59.0762 9.31055 58.8066 9.93164C58.5488 10.541 58.4199 11.1914 58.4199 11.8828V16.9277H68.5098ZM73.5547 27H68.5098V21.9551H58.4199V27H53.3926V11.8828C53.3926 10.4883 53.6562 9.18164 54.1836 7.96289C54.7109 6.73242 55.4258 5.66016 56.3281 4.74609C57.2422 3.83203 58.3086 3.11133 59.5273 2.58398C60.7578 2.05664 62.0703 1.79297 63.4648 1.79297C64.8594 1.79297 66.166 2.05664 67.3848 2.58398C68.6152 3.11133 69.6875 3.83203 70.6016 4.74609C71.5156 5.66016 72.2363 6.73242 72.7637 7.96289C73.291 9.18164 73.5547 10.4883 73.5547 11.8828V27ZM82.9766 6.83789V16.9277H88.0215C88.7129 16.9277 89.3633 16.7988 89.9727 16.541C90.582 16.2715 91.1152 15.9082 91.5723 15.4512C92.0293 14.9941 92.3867 14.4609 92.6445 13.8516C92.9141 13.2305 93.0488 12.5742 93.0488 11.8828C93.0488 11.1914 92.9141 10.541 92.6445 9.93164C92.3867 9.31055 92.0293 8.77148 91.5723 8.31445C91.1152 7.85742 90.582 7.5 89.9727 7.24219C89.3633 6.97266 88.7129 6.83789 88.0215 6.83789H82.9766ZM82.9766 27H77.9316V1.79297H88.0215C88.9473 1.79297 89.8379 1.91602 90.6934 2.16211C91.5488 2.39648 92.3457 2.73633 93.084 3.18164C93.834 3.61523 94.5137 4.14258 95.123 4.76367C95.7441 5.37305 96.2715 6.05273 96.7051 6.80273C97.1504 7.55273 97.4902 8.35547 97.7246 9.21094C97.9707 10.0664 98.0938 10.957 98.0938 11.8828C98.0938 12.75 97.9824 13.5938 97.7598 14.4141C97.5488 15.2344 97.2383 16.0137 96.8281 16.752C96.4297 17.4902 95.9375 18.1699 95.3516 18.791C94.7656 19.4121 94.1094 19.9512 93.3828 20.4082L96.1777 27H90.8164L88.6191 21.9199L82.9766 21.9551V27ZM111.541 27H106.514V6.83789H98.9375V1.79297H119.1V6.83789H111.541V27ZM139.824 17.4199C139.824 18.8965 139.572 20.2441 139.068 21.4629C138.564 22.6816 137.879 23.7305 137.012 24.6094C136.145 25.4766 135.125 26.1504 133.953 26.6309C132.793 27.1113 131.545 27.3516 130.209 27.3516C128.885 27.3516 127.637 27.1055 126.465 26.6133C125.305 26.1211 124.285 25.4355 123.406 24.5566C122.539 23.6777 121.854 22.6348 121.35 21.4277C120.846 20.209 120.594 18.873 120.594 17.4199V0.685547H125.41V9.47461C125.668 9.14648 125.979 8.85352 126.342 8.5957C126.717 8.33789 127.115 8.12695 127.537 7.96289C127.971 7.79883 128.416 7.67578 128.873 7.59375C129.33 7.5 129.775 7.45312 130.209 7.45312C131.545 7.45312 132.793 7.70508 133.953 8.20898C135.125 8.70117 136.145 9.39258 137.012 10.2832C137.879 11.1738 138.564 12.2285 139.068 13.4473C139.572 14.6543 139.824 15.9785 139.824 17.4199ZM134.99 17.4199C134.99 16.6934 134.861 16.0195 134.604 15.3984C134.357 14.7656 134.018 14.2207 133.584 13.7637C133.15 13.3066 132.641 12.9492 132.055 12.6914C131.48 12.4336 130.865 12.3047 130.209 12.3047C129.553 12.3047 128.932 12.4512 128.346 12.7441C127.771 13.0254 127.268 13.4062 126.834 13.8867C126.4 14.3555 126.061 14.9004 125.814 15.5215C125.568 16.1309 125.445 16.7637 125.445 17.4199C125.445 18.1465 125.568 18.8203 125.814 19.4414C126.061 20.0625 126.4 20.6016 126.834 21.0586C127.268 21.5156 127.771 21.8789 128.346 22.1484C128.932 22.4062 129.553 22.5352 130.209 22.5352C130.865 22.5352 131.48 22.4062 132.055 22.1484C132.641 21.8789 133.15 21.5156 133.584 21.0586C134.018 20.6016 134.357 20.0625 134.604 19.4414C134.861 18.8203 134.99 18.1465 134.99 17.4199ZM156.33 24.8027C155.943 25.1543 155.527 25.4883 155.082 25.8047C154.648 26.1094 154.191 26.3789 153.711 26.6133C153.23 26.8359 152.732 27.0117 152.217 27.1406C151.713 27.2812 151.197 27.3516 150.67 27.3516C149.51 27.3516 148.42 27.1465 147.4 26.7363C146.381 26.3262 145.484 25.7461 144.711 24.9961C143.949 24.2344 143.346 23.3145 142.9 22.2363C142.467 21.1465 142.25 19.9277 142.25 18.5801V8.17383H147.031V18.5801C147.031 19.2129 147.125 19.7812 147.312 20.2852C147.512 20.7773 147.775 21.1934 148.104 21.5332C148.432 21.873 148.812 22.1309 149.246 22.3066C149.691 22.4824 150.166 22.5703 150.67 22.5703C151.162 22.5703 151.625 22.459 152.059 22.2363C152.504 22.002 152.891 21.6973 153.219 21.3223C153.547 20.9473 153.805 20.5254 153.992 20.0566C154.18 19.5762 154.273 19.084 154.273 18.5801V8.17383H159.072V27H157.912L156.33 24.8027ZM167.281 34.1719V29.3379L169.953 29.373C170.422 29.373 170.873 29.2969 171.307 29.1445C171.74 28.9922 172.139 28.7812 172.502 28.5117C172.877 28.2422 173.205 27.9199 173.486 27.5449C173.768 27.1816 173.996 26.7832 174.172 26.3496C173.645 26.5723 173.105 26.7949 172.555 27.0176C172.016 27.2402 171.471 27.3516 170.92 27.3516C169.76 27.3516 168.67 27.1465 167.65 26.7363C166.631 26.3262 165.734 25.7461 164.961 24.9961C164.199 24.2344 163.596 23.3145 163.15 22.2363C162.717 21.1465 162.5 19.9277 162.5 18.5801V8.17383H167.281V18.5801C167.281 19.248 167.375 19.834 167.562 20.3379C167.762 20.8301 168.025 21.2461 168.354 21.5859C168.682 21.9141 169.062 22.1602 169.496 22.3242C169.941 22.4883 170.416 22.5703 170.92 22.5703C171.412 22.5703 171.875 22.459 172.309 22.2363C172.754 22.002 173.141 21.6973 173.469 21.3223C173.797 20.9473 174.055 20.5254 174.242 20.0566C174.43 19.5762 174.523 19.084 174.523 18.5801V8.17383H179.357V24.627C179.346 25.9512 179.088 27.1934 178.584 28.3535C178.08 29.5137 177.389 30.5273 176.51 31.3945C175.643 32.2617 174.629 32.9473 173.469 33.4512C172.309 33.9551 171.066 34.207 169.742 34.207L167.281 34.1719Z" fill="#1860A3"/>
</svg>
