<svg width="60" height="40" viewBox="0 0 60 40" fill="none" xmlns="http://www.w3.org/2000/svg">
<path d="M52.5 25L50 15L43.75 25M22.5 25L25 15M7.5 15H10V25H11.25L17.5 15M40 15.8333C40 15.6123 39.8683 15.4004 39.6339 15.2441C39.3995 15.0878 39.0815 15 38.75 15H36.875C35.0725 15 33.5325 15.8683 33.2375 17.055L33.0125 17.945C32.9493 18.1979 32.9695 18.4569 33.0717 18.7041C33.1739 18.9512 33.3557 19.1806 33.6043 19.3762C33.853 19.5717 34.1625 19.7289 34.5115 19.8366C34.8605 19.9443 35.2404 20.0001 35.625 20C36.0096 19.9999 36.3895 20.0557 36.7385 20.1634C37.0875 20.2711 37.397 20.4283 37.6457 20.6238C37.8943 20.8194 38.0761 21.0488 38.1783 21.2959C38.2805 21.5431 38.3007 21.8021 38.2375 22.055L38.0125 22.945C37.8688 23.519 37.4244 24.0405 36.7585 24.4168C36.0925 24.793 35.248 24.9997 34.375 25H32.5C32.1685 25 31.8505 24.9122 31.6161 24.7559C31.3817 24.5996 31.25 24.3877 31.25 24.1667M45 23.3333H51.75" stroke="white" stroke-width="2" stroke-linecap="round" stroke-linejoin="round"/>
</svg>
