<svg width="60" height="60" viewBox="0 0 60 60" fill="none" xmlns="http://www.w3.org/2000/svg">
<path opacity="0.5" d="M38.1825 46.8199C34.8558 46.8204 31.6037 45.8344 28.8374 43.9866C26.0711 42.1389 23.9148 39.5122 22.6413 36.439C21.3678 33.3657 21.0342 29.9838 21.6827 26.721C22.3312 23.4581 23.9327 20.4608 26.2847 18.1082C28.6367 15.7555 31.6335 14.1531 34.8961 13.5036C38.1588 12.8541 41.5408 13.1867 44.6144 14.4593C47.6881 15.7319 50.3153 17.8874 52.1639 20.6532C54.0125 23.4189 54.9995 26.6708 55 29.9974V29.9999C54.9954 34.459 53.2221 38.7342 50.0693 41.8875C46.9165 45.0408 42.6416 46.8146 38.1825 46.8199Z" fill="white"/>
<path d="M21.8175 46.8199C18.4908 46.8199 15.2388 45.8335 12.4728 43.9853C9.70677 42.1371 7.55091 39.5101 6.27785 36.4367C5.00478 33.3632 4.67169 29.9813 5.32069 26.7185C5.9697 23.4558 7.57165 20.4587 9.92397 18.1064C12.2763 15.7541 15.2733 14.1521 18.5361 13.5031C21.7988 12.8541 25.1808 13.1872 28.2542 14.4603C31.3277 15.7334 33.9546 17.8892 35.8028 20.6552C37.651 23.4213 38.6375 26.6733 38.6375 29.9999C38.6329 34.4595 36.8593 38.735 33.7059 41.8884C30.5526 45.0417 26.277 46.8153 21.8175 46.8199Z" fill="white"/>
</svg>
